<svg xmlns="http://www.w3.org/2000/svg" viewBox="0 0 175.25 190.66"><defs><style>.cls-1{fill:none;}</style></defs><title>logo2</title><g id="レイヤー_2" data-name="レイヤー 2"><g id="レイヤー_1-2" data-name="レイヤー 1"><path class="cls-1" d="M99.62,13.5c-.1.33-.19.67-.26,1,0,.11,0,.23-.06.34s-.09.51-.12.77,0,.22,0,.34c0,.36-.06.73-.06,1.11s0,.69.05,1,.07.62.12.93a12,12,0,0,0,19.32,7.53h0a12.09,12.09,0,0,0,3.45-4.3h0a12.06,12.06,0,1,0-22.4-8.76h0Z"/><path class="cls-1" d="M123.3,29.7A17.36,17.36,0,0,1,93.72,18.15a62,62,0,1,0,55,61.59A61.9,61.9,0,0,0,123.3,29.7Z"/><path d="M126.51,25.3A17.36,17.36,0,1,0,94.34,12.7a67.24,67.24,0,1,0,32.17,12.6ZM111.14,5A12,12,0,0,1,122,22.26h0a12.09,12.09,0,0,1-3.45,4.3h0A12,12,0,0,1,99.25,19q-.08-.46-.12-.93c0-.34-.05-.68-.05-1s0-.74.06-1.11c0-.11,0-.22,0-.34s.07-.52.12-.77,0-.23.06-.34c.07-.34.16-.68.26-1h0A12.07,12.07,0,0,1,111.14,5ZM86.72,141.75a62,62,0,1,1,7-123.59A17.36,17.36,0,0,0,123.3,29.7a62,62,0,0,1-36.58,112Z"/><path class="cls-1" d="M86.64,51.54A28,28,0,0,0,77.48,106a13.81,13.81,0,0,1,25.61-3.8A28,28,0,0,0,86.64,51.54Z"/><path class="cls-1" d="M98.88,109.9l0-.19a7.9,7.9,0,0,0,.08-1.07,8,8,0,0,0-.05-.91c0-.06,0-.12,0-.19,0-.24-.07-.48-.13-.72l0-.14c-.06-.26-.14-.51-.23-.75l0-.06a8.29,8.29,0,0,0-.34-.8,8.09,8.09,0,0,0-15.25,2.22q-.05.32-.09.65c0,.23,0,.46,0,.7a8,8,0,0,0,.07,1c0,.08,0,.16,0,.24a8,8,0,0,0,.2.91l0,.08a8.1,8.1,0,0,0,15.55,0A8.32,8.32,0,0,0,98.88,109.9Z"/><path d="M120.65,79.23a33.79,33.79,0,1,0-43.19,32.45,13.81,13.81,0,0,0,27.33-2.82c0-.33,0-.66,0-1A33.74,33.74,0,0,0,120.65,79.23ZM90.88,116.74a8.13,8.13,0,0,1-7.77-5.83l0-.08a8,8,0,0,1-.2-.91c0-.08,0-.16,0-.24a8,8,0,0,1-.07-1c0-.24,0-.47,0-.7s0-.43.09-.65a8.09,8.09,0,0,1,15.25-2.22,8.29,8.29,0,0,1,.34.8l0,.06c.09.25.16.5.23.75l0,.14c.05.23.09.47.13.72,0,.06,0,.12,0,.19a8,8,0,0,1,.05.91,7.9,7.9,0,0,1-.08,1.07l0,.19a8.32,8.32,0,0,1-.22,1A8.1,8.1,0,0,1,90.88,116.74Zm12.2-14.54A13.81,13.81,0,0,0,77.48,106a28,28,0,1,1,25.61-3.8Z"/><path d="M13.92,171l-2.77,1.64a4.76,4.76,0,0,0-1.48-1.76,3.45,3.45,0,0,0-1.89-.47,3.49,3.49,0,0,0-2.36.81,2.5,2.5,0,0,0-.94,2q0,1.66,2.46,2.67l2.26.92a9.64,9.64,0,0,1,4,2.72,6.13,6.13,0,0,1,1.27,3.93,6.91,6.91,0,0,1-2.08,5.16,7.14,7.14,0,0,1-5.2,2.05,7,7,0,0,1-4.86-1.74A8,8,0,0,1,0,184l3.46-.76A5.88,5.88,0,0,0,4.28,186a3.55,3.55,0,0,0,3.08,1.46A3.57,3.57,0,0,0,10,186.4a3.7,3.7,0,0,0,1.05-2.71,3.81,3.81,0,0,0-.18-1.21,3.06,3.06,0,0,0-.57-1,4.57,4.57,0,0,0-1-.87,9.76,9.76,0,0,0-1.46-.77l-2.18-.91Q1,177,1,173.18A5.45,5.45,0,0,1,3,168.92a7,7,0,0,1,4.85-1.73A6.77,6.77,0,0,1,13.92,171Z"/><path d="M22,181.07v9.18H18.62V167.63h3.87a17.44,17.44,0,0,1,4.29.4,5.76,5.76,0,0,1,2.58,1.49,6.44,6.44,0,0,1,1.95,4.8,6.2,6.2,0,0,1-2.08,4.92,8.23,8.23,0,0,1-5.61,1.82Zm0-3.16h1.27q4.7,0,4.7-3.62t-4.85-3.5H22Z"/><path d="M48.11,184.76H38.42l-2.52,5.49H32.23l11.19-24,10.8,24H50.48Zm-1.39-3.21-3.35-7.69-3.52,7.69Z"/><path d="M73.75,168.85v4a9.46,9.46,0,0,0-6.12-2.48,7.8,7.8,0,0,0-5.87,2.5,8.45,8.45,0,0,0-2.4,6.09,8.24,8.24,0,0,0,2.4,6,7.93,7.93,0,0,0,5.89,2.45,7.22,7.22,0,0,0,3.06-.59,8.83,8.83,0,0,0,1.46-.79,17.22,17.22,0,0,0,1.59-1.2V189a12.33,12.33,0,0,1-6.15,1.66,11.35,11.35,0,0,1-8.28-3.38A11.22,11.22,0,0,1,55.91,179a11.61,11.61,0,0,1,2.86-7.71,11.37,11.37,0,0,1,9.1-4.15A11.55,11.55,0,0,1,73.75,168.85Z"/><path d="M90.54,170.84H81.47v5.43h8.8v3.21h-8.8V187h9.07v3.21H78.06V167.63H90.54Z"/><path d="M121,168.85v4a9.46,9.46,0,0,0-6.12-2.48,7.8,7.8,0,0,0-5.87,2.5,8.45,8.45,0,0,0-2.4,6.09,8.24,8.24,0,0,0,2.4,6,7.93,7.93,0,0,0,5.89,2.45,7.22,7.22,0,0,0,3.06-.59,8.83,8.83,0,0,0,1.46-.79,17.22,17.22,0,0,0,1.59-1.2V189a12.33,12.33,0,0,1-6.15,1.66,11.35,11.35,0,0,1-8.28-3.38,11.22,11.22,0,0,1-3.41-8.23,11.61,11.61,0,0,1,2.86-7.71,11.37,11.37,0,0,1,9.1-4.15A11.55,11.55,0,0,1,121,168.85Z"/><path d="M138.59,184.76h-9.68l-2.52,5.49h-3.68l11.19-24,10.8,24H141Zm-1.39-3.21-3.35-7.69-3.52,7.69Z"/><path d="M158.82,170.84h-7.88v5.43h7.6v3.21h-7.6v10.77h-3.41V167.63h11.29Z"/><path d="M175.25,170.84h-9.07v5.43H175v3.21h-8.8V187h9.07v3.21H162.77V167.63h12.48Z"/></g></g></svg>